<svg width="40" height="40" viewBox="0 0 40 40" fill="none" xmlns="http://www.w3.org/2000/svg">
<path d="M3.75178 15.0282H36.2478C36.2478 15.0282 37.1558 14.2842 36.2478 13.3362L20.0038 3.77625L3.75178 13.3322C3.75178 13.3322 2.62778 14.3442 3.75178 15.0282ZM37.3078 34.9122L35.3478 33.2082C35.2398 33.1162 34.9958 33.0402 34.7958 33.0402L5.60378 33.0842C5.40778 33.0842 5.14778 33.1562 5.02778 33.2442L2.71978 34.9202C2.59978 35.0082 2.50378 35.1682 2.50378 35.2762V36.0242C2.50378 36.1322 2.66378 36.2242 2.86378 36.2242H37.1478C37.3438 36.2242 37.5078 36.1362 37.5078 36.0242V35.2802C37.4998 35.1682 37.4118 35.0042 37.3078 34.9122ZM32.1598 16.3522H35.1518V31.3482H32.1598V16.3522ZM27.2638 16.3522H30.2558V31.3482H27.2638V16.3522ZM10.2078 16.3522H13.1998V31.3482H10.2078V16.3522ZM5.31178 16.3522H8.30378V31.3482H5.31178V16.3522ZM20.0638 31.3282C20.2918 31.3282 20.5198 31.2962 20.7358 31.2322V29.4162C21.6638 29.2082 22.3718 28.8082 22.8598 28.2162C23.3438 27.6282 23.5878 26.9042 23.5878 26.0482C23.5878 25.5362 23.5238 25.1122 23.3998 24.7722C23.2758 24.4322 23.0998 24.1442 22.8758 23.9122C22.6518 23.6762 22.3758 23.4762 22.0518 23.3082C21.7278 23.1402 21.3678 22.9722 20.9718 22.8082L20.0318 22.4162C19.8758 22.3522 19.7198 22.2842 19.5638 22.2122C19.4078 22.1402 19.2678 22.0522 19.1398 21.9522C19.0158 21.8522 18.9158 21.7322 18.8438 21.5842C18.7718 21.4362 18.7358 21.2602 18.7358 21.0522C18.7358 20.8122 18.7838 20.6162 18.8758 20.4642C18.9678 20.3122 19.0878 20.1962 19.2358 20.1122C19.3838 20.0282 19.5478 19.9722 19.7278 19.9482C19.9118 19.9242 20.0918 19.9082 20.2678 19.9082C20.5598 19.9082 20.8198 19.9202 21.0518 19.9482C21.2798 19.9762 21.4878 20.0082 21.6718 20.0482C21.8558 20.0882 22.0278 20.1442 22.1878 20.2042C22.3478 20.2682 22.5078 20.3282 22.6638 20.3922C22.9358 19.8082 23.1038 19.2122 23.1638 18.6082C22.7358 18.4602 22.3278 18.3442 21.9438 18.2562C21.5558 18.1682 21.1558 18.1082 20.7358 18.0762V16.4642C20.4958 16.4002 20.2678 16.3722 20.0478 16.3722C19.8198 16.3722 19.5918 16.4042 19.3758 16.4642V18.1242C18.4358 18.2402 17.6998 18.5682 17.1678 19.1122C16.6358 19.6562 16.3678 20.3962 16.3678 21.3362C16.3678 21.7762 16.4238 22.1442 16.5318 22.4482C16.6398 22.7522 16.7998 23.0162 16.9998 23.2402C17.2038 23.4642 17.4478 23.6562 17.7278 23.8202C18.0078 23.9842 18.3238 24.1362 18.6678 24.2842L19.4998 24.6442C19.6758 24.7282 19.8598 24.8082 20.0478 24.8802C20.2358 24.9522 20.4038 25.0402 20.5558 25.1482C20.7078 25.2522 20.8318 25.3842 20.9318 25.5482C21.0318 25.7082 21.0798 25.9162 21.0798 26.1682C21.0798 26.6682 20.8998 27.0322 20.5398 27.2562C20.1798 27.4802 19.6718 27.5922 19.0118 27.5922C18.5718 27.5922 18.1598 27.5602 17.7758 27.4922C17.3878 27.4242 16.9758 27.3002 16.5398 27.1242C16.4238 27.4602 16.3238 27.7802 16.2438 28.0882C16.1598 28.3962 16.1038 28.7002 16.0718 29.0042C16.3318 29.1082 16.5838 29.1962 16.8238 29.2722C17.0638 29.3442 17.3078 29.4042 17.5518 29.4522C17.7958 29.5002 18.0558 29.5322 18.3278 29.5522C18.5998 29.5722 18.9078 29.5842 19.2518 29.5842H19.3758V31.2442C19.6038 31.2962 19.8358 31.3282 20.0638 31.3282Z" fill="#558EFF"/>
</svg>
