<svg width="88" height="88" viewBox="0 0 88 88" fill="none" xmlns="http://www.w3.org/2000/svg">
<g filter="url(#filter0_d_163_561)">
<circle cx="44" cy="38" r="32" fill="#336CFB"/>
</g>
<g clip-path="url(#clip0_163_561)">
<path d="M54.4473 50.1467C54.3406 49.1253 54.314 48.096 54.2126 47.072C54.0606 45.5387 53.842 44.0133 53.3886 42.5333C53.1433 41.7413 52.77 41.0533 52.026 40.616C51.314 40.1973 50.538 39.9493 49.7593 39.7067C49.4873 39.6213 49.5353 39.8133 49.5513 39.952C49.6233 40.6213 49.562 41.2827 49.4233 41.936C49.378 42.1467 49.45 42.2427 49.6313 42.3467C50.3993 42.776 50.8366 43.432 50.8846 44.32C50.9326 45.2347 50.746 46.1333 50.69 47.04C50.6526 47.656 50.586 48.2747 50.3273 48.848C50.0153 49.5413 49.4766 49.816 48.7406 49.6747C48.4606 49.6213 48.2766 49.4933 48.322 49.184C48.3673 48.88 48.578 48.7733 48.858 48.8293C49.21 48.8987 49.4153 48.7333 49.5593 48.4453C49.658 48.2453 49.7113 48.0267 49.7326 47.8053C49.8366 46.784 49.9486 45.7627 50.0313 44.7387C50.106 43.8133 49.61 43.112 48.7886 42.9253C47.9406 42.7333 47.21 43.1173 46.8606 43.9813C46.5806 44.672 46.3513 45.384 46.0846 46.0827C45.9326 46.4773 45.802 46.8747 45.722 47.288C45.618 47.824 45.7246 48.0213 46.2206 48.2453C46.458 48.352 46.5726 48.52 46.49 48.7733C46.4073 49.0293 46.2206 49.1013 45.9646 49.0533C45.234 48.9147 44.81 48.3947 44.8233 47.6453C44.8286 47.3387 44.874 47.0427 44.9593 46.7493C45.274 45.6613 45.6873 44.608 46.1086 43.5573C46.4873 42.6133 47.242 42.0933 48.2686 42.0213C48.4686 42.0053 48.554 41.9493 48.5913 41.7547C48.7166 41.1067 48.7353 40.4587 48.6766 39.8027C48.65 39.4933 48.53 39.3253 48.2073 39.2747C47.946 39.2347 47.6846 39.1467 47.4393 39.0453C47.194 38.9467 47.0873 38.976 47.002 39.2533C46.7006 40.2613 46.2793 41.224 45.7913 42.1573C45.5566 42.608 45.2846 43.04 44.9833 43.5627C44.8633 42.9013 44.7726 42.3387 44.6553 41.7787C44.602 41.528 44.6073 41.3013 44.7166 41.064C44.778 40.928 44.9406 40.768 44.778 40.6213C44.5193 40.3867 44.2366 40.1813 43.962 39.9653C43.954 39.9573 43.9166 39.976 43.9006 39.9893C43.634 40.2187 43.33 40.416 43.122 40.688C42.9966 40.8507 43.2393 41.064 43.2926 41.2613C43.3033 41.3067 43.3273 41.3547 43.322 41.3973C43.21 42.0853 43.0926 42.7707 42.9673 43.5227C42.8793 43.4187 42.8393 43.3787 42.8126 43.3333C42.1086 42.1973 41.5353 41.0027 41.1006 39.7387C41.0126 39.48 41.0206 39.08 40.7993 38.9973C40.5913 38.92 40.2793 39.1253 40.0126 39.2C39.874 39.24 39.7513 39.2773 39.698 39.44C39.5966 39.7547 39.4526 40.0533 39.378 40.368C38.8873 42.416 39.01 44.4427 39.642 46.4453C39.738 46.7493 39.8526 46.9147 40.1993 46.9813C40.8686 47.1147 41.2286 47.848 40.9993 48.4827C40.7593 49.152 40.0366 49.4667 39.4073 49.1787C38.7726 48.8907 38.5006 48.1093 38.8686 47.528C39.002 47.3173 38.986 47.1547 38.914 46.9467C38.2366 45.0027 38.0553 43.0133 38.3673 40.976C38.4393 40.5067 38.5966 40.0587 38.7033 39.5627C37.7726 39.8347 36.8793 40.0613 36.074 40.5307C35.482 40.8747 35.0233 41.3253 34.7646 41.9813C34.4553 42.768 34.2686 43.584 34.1113 44.4107C33.7486 46.3307 33.6366 48.28 33.49 50.224C33.45 50.7547 33.6873 51.0827 34.1086 51.3307H53.8126C54.314 51.0933 54.506 50.7147 54.4473 50.1467ZM39.546 33.7467C39.7273 33.7947 39.8126 33.8827 39.882 34.048C40.29 35.024 40.794 35.9413 41.5433 36.704C42.1353 37.3093 42.8206 37.7627 43.69 37.8507C44.7833 37.9627 45.6366 37.4747 46.3753 36.736C47.1273 35.9813 47.65 35.0747 48.058 34.0933C48.114 33.96 48.1326 33.792 48.3353 33.7733C49.0633 33.704 49.6313 32.552 49.5113 31.8507C49.4766 31.6507 49.402 31.4667 49.1833 31.4533C48.9113 31.4347 48.962 31.2907 49.002 31.1227C49.146 30.52 49.2073 29.904 49.2366 29.376C49.2553 28.84 49.2046 28.3947 49.098 27.968C48.9353 27.3227 48.602 26.768 47.9966 26.4587C47.6393 26.2747 47.3646 26.072 47.2446 25.6747C47.1993 25.52 47.0473 25.4187 46.922 25.3147C46.458 24.9307 45.9086 24.7627 45.338 24.7067C43.6286 24.5387 42.034 24.904 40.6233 25.8987C39.65 26.5813 38.9806 27.4827 38.8446 28.7093C38.754 29.5173 38.7993 30.3173 38.9513 31.1147C38.9833 31.2853 39.0526 31.464 38.7513 31.4587C38.6153 31.456 38.5273 31.5707 38.482 31.704C38.2313 32.4187 38.81 33.552 39.546 33.7467Z" fill="white"/>
</g>
<defs>
<filter id="filter0_d_163_561" x="0" y="0" width="88" height="88" filterUnits="userSpaceOnUse" color-interpolation-filters="sRGB">
<feFlood flood-opacity="0" result="BackgroundImageFix"/>
<feColorMatrix in="SourceAlpha" type="matrix" values="0 0 0 0 0 0 0 0 0 0 0 0 0 0 0 0 0 0 127 0" result="hardAlpha"/>
<feOffset dy="6"/>
<feGaussianBlur stdDeviation="6"/>
<feColorMatrix type="matrix" values="0 0 0 0 0.2 0 0 0 0 0.423529 0 0 0 0 0.984314 0 0 0 0.16 0"/>
<feBlend mode="normal" in2="BackgroundImageFix" result="effect1_dropShadow_163_561"/>
<feBlend mode="normal" in="SourceGraphic" in2="effect1_dropShadow_163_561" result="shape"/>
</filter>
<clipPath id="clip0_163_561">
<rect width="26.6667" height="26.6667" fill="white" transform="translate(30.6667 24.6666)"/>
</clipPath>
</defs>
</svg>
