<svg width="16" height="16" viewBox="0 0 16 16" fill="none" xmlns="http://www.w3.org/2000/svg">
<g clip-path="url(#clip0_1368_1052)">
<path d="M15.6465 6.79995C15.0801 6.35355 14.0225 6.73435 13.1985 7.64955C12.4289 7.43515 11.7457 7.48795 11.1633 7.81595C10.0481 8.44475 9.62567 9.89115 9.46887 10.9903C9.44487 11.1599 9.42247 11.3327 9.39847 11.5055C9.14887 13.4079 8.91207 15.2063 6.65607 15.2063C6.61927 15.2063 6.58247 15.2063 6.54407 15.2047C5.90407 15.1887 5.44327 14.9903 5.13607 14.5967C4.56967 13.8703 4.66727 12.6831 4.73927 12.1903C4.96327 12.0895 5.12167 11.8687 5.12967 11.6079L5.16327 10.6335L6.35847 10.2783C6.50727 10.2335 6.62247 10.1391 6.70567 10.0223C6.92007 10.0703 7.18727 10.0591 7.37607 9.94075C7.70727 9.73435 8.19047 9.33755 8.79207 8.58715C9.44967 7.76635 9.61127 7.10555 9.62727 6.67675C9.63527 6.37115 9.42247 6.06075 9.26407 5.97435C9.10567 5.88795 9.07687 6.04955 9.10727 6.35355C9.15207 6.81115 9.08007 7.50715 8.48967 8.26395C8.47847 8.27675 8.46887 8.28635 8.45927 8.29915L8.46407 8.26555C8.60487 8.04795 8.72647 7.81915 8.81927 7.57435C9.77927 5.03195 7.70407 2.06555 7.61447 1.94075C7.59527 1.91355 7.56967 1.89595 7.54407 1.87515C7.60327 1.73915 7.58887 1.61595 7.48967 1.55195C7.33447 1.45115 7.09127 1.14875 6.95047 0.876747L6.70087 0.399947C6.56167 0.129547 6.26727 0.0815474 6.04647 0.292747L5.42727 0.894348C5.20487 1.10555 5.24807 1.39195 5.51847 1.53435L5.95527 1.75835C6.22567 1.90075 6.52167 2.15675 6.61767 2.33115C6.68967 2.46075 6.85607 2.47995 7.02727 2.39195C7.20327 2.64795 8.91207 5.24155 8.12807 7.31675C8.09607 7.40155 8.04647 7.47995 8.00487 7.56155L8.00007 7.56315C7.95207 7.55195 7.90567 7.53435 7.85607 7.53435C7.73287 7.53435 7.61767 7.57115 7.52167 7.63195L7.66727 7.77115C7.57927 7.87835 7.52007 8.00955 7.52007 8.15835C7.52007 8.19515 7.52807 8.23035 7.53447 8.26555C7.25927 8.56635 6.91527 8.83515 6.49927 9.06395C6.34567 8.97755 6.16007 8.95035 5.97927 9.00475L4.52327 9.43675L2.96487 8.94395C2.78727 8.88795 2.60167 8.91195 2.44967 8.99515C1.70727 8.55515 1.20167 7.99355 0.944073 7.31675C0.123273 5.14235 2.04167 2.39675 2.06087 2.36955C2.06247 2.36475 2.06247 2.35995 2.06727 2.35515C2.06727 2.35515 2.11207 2.39835 2.16807 2.44795C2.22407 2.50075 2.34567 2.40155 2.44167 2.22715C2.53607 2.05115 2.83527 1.79515 3.10567 1.65435L3.54087 1.42875C3.81287 1.28795 3.85447 1.00155 3.63367 0.788747L3.01287 0.188747C2.79207 -0.0240526 2.50087 0.0239474 2.35847 0.295947L2.11047 0.772747C1.96807 1.04475 1.72647 1.34555 1.57127 1.44795C1.41287 1.54715 1.34407 1.68315 1.41287 1.74715L1.53927 1.86555C1.50887 1.88635 1.48167 1.90875 1.45767 1.94075C1.36807 2.06555 -0.707126 5.03195 0.252873 7.57435C0.576073 8.42555 1.19687 9.11835 2.10567 9.64635C2.12967 9.90075 2.30407 10.1279 2.56327 10.2111L3.83527 10.6127L3.80167 11.5615C3.79687 11.7583 3.87847 11.9375 4.00967 12.0655C3.92167 12.6527 3.80487 14.0895 4.55207 15.0479C4.99847 15.6207 5.66247 15.9215 6.52647 15.9423C6.57287 15.9455 6.61767 15.9455 6.66247 15.9455C9.56007 15.9455 9.87687 13.5407 10.1313 11.6031C10.1537 11.4335 10.1761 11.2639 10.2001 11.0959C10.3889 9.77275 10.8593 8.83675 11.5265 8.46075C11.8609 8.27035 12.2625 8.21755 12.7201 8.29755C12.1457 9.24635 12.0737 10.2367 12.5969 10.6527C13.2033 11.1327 14.3777 10.6591 15.2193 9.59515C16.0609 8.53115 16.2513 7.27995 15.6465 6.79995ZM8.35367 8.42555C8.30407 8.48475 8.25447 8.54875 8.20647 8.60315C8.25447 8.54235 8.30247 8.48155 8.34727 8.41915L8.35367 8.42555ZM14.1377 8.71515C13.8225 9.11515 13.3825 9.29275 13.1553 9.11195C12.9889 8.98075 12.9841 8.69435 13.1153 8.39355C13.2353 8.43195 13.3569 8.47355 13.4817 8.52635C13.6721 8.60635 13.8865 8.51995 13.9665 8.33115C14.0465 8.14395 13.9585 7.92635 13.7697 7.84635C13.7137 7.82235 13.6609 7.80475 13.6049 7.78555C13.8625 7.59675 14.1329 7.53915 14.2945 7.66875C14.5233 7.84955 14.4513 8.31835 14.1377 8.71515Z" fill="#DBDDE0"/>
</g>
<defs>
<clipPath id="clip0_1368_1052">
<rect width="16" height="16" fill="white"/>
</clipPath>
</defs>
</svg>
