<svg width="16" height="16" viewBox="0 0 16 16" fill="none" xmlns="http://www.w3.org/2000/svg">
<g clip-path="url(#clip0_1368_1062)">
<path d="M5.21122 4.46234C5.31842 4.68154 5.43362 4.87354 5.47842 5.10234C5.60322 5.73754 5.88962 6.30874 6.31842 6.78074C6.59042 7.07994 6.57442 7.38714 6.48162 7.69594C6.40162 7.96314 6.42562 8.15834 6.60322 8.36314C6.84002 8.63834 7.07682 8.91194 7.40482 9.08634C7.78402 9.28954 8.31522 9.25434 8.74402 8.91994C9.09442 8.64634 9.35682 8.29594 9.60002 7.92794C9.64322 7.86394 9.62562 7.80794 9.61282 7.74714C9.59682 7.67194 9.58242 7.59674 9.56642 7.52314C9.50082 7.22074 9.59042 6.98074 9.79682 6.74394C10.2096 6.26874 10.4848 5.71514 10.6128 5.09594C10.6592 4.87194 10.7776 4.68634 10.9024 4.48794C10.8992 4.56474 10.9024 4.64314 10.8912 4.71994C10.7728 5.51034 10.8624 6.29114 11.0032 7.06554C11.0624 7.38394 11.1664 7.69754 11.2944 7.99994C11.3696 8.17594 11.5488 8.17274 11.6864 8.22874C12.184 8.42714 12.6672 8.65114 13.1248 8.93274C13.5392 9.18714 13.7488 9.57434 13.896 10.0111C14.1264 10.6927 14.328 11.3823 14.4656 12.0911C14.616 12.8687 14.6752 13.6495 14.6304 14.4399C14.6096 14.7855 14.392 14.9919 14.1024 15.1007C13.416 15.3583 12.7088 15.5583 11.9888 15.7055C11.5648 15.7919 11.1392 15.8575 10.7168 15.9391C10.3968 16.0015 10.0832 15.9935 9.76482 15.9951C8.92642 16.0015 8.08642 15.9839 7.24802 16.0015C6.44162 16.0175 5.64962 15.9327 4.85602 15.7839C4.03842 15.6319 3.23202 15.4495 2.44482 15.1887C2.22242 15.1151 2.00322 15.0319 1.78722 14.9407C1.45282 14.7999 1.40002 14.4991 1.37602 14.1983C1.33922 13.7295 1.42402 13.2655 1.47362 12.8031C1.54082 12.1807 1.64802 11.5631 1.80162 10.9551C1.94562 10.3839 2.12002 9.82074 2.43362 9.31994C2.68482 8.91834 3.09122 8.69754 3.52802 8.53754C3.89122 8.40634 4.25602 8.27994 4.61922 8.14714C4.70242 8.11674 4.76162 8.06394 4.80002 7.96794C5.01762 7.40954 5.14242 6.83514 5.19682 6.23674C5.24482 5.71834 5.26722 5.20474 5.19042 4.68794C5.18242 4.62234 5.16802 4.55194 5.21122 4.46234ZM7.56162 13.7135C7.56162 13.8607 7.56802 13.9823 7.56002 14.1039C7.55202 14.2255 7.59042 14.2783 7.72002 14.2719C7.91202 14.2639 8.10402 14.2639 8.29602 14.2719C8.42722 14.2783 8.46082 14.2207 8.45762 14.1023C8.45122 13.8719 8.46242 13.6415 8.45282 13.4111C8.44802 13.2735 8.48802 13.2143 8.63682 13.2207C8.86722 13.2303 9.09762 13.2175 9.32802 13.2255C9.45442 13.2303 9.50082 13.1791 9.49922 13.0575C9.49602 12.8655 9.49122 12.6735 9.50082 12.4831C9.50882 12.3471 9.44322 12.3215 9.32802 12.3231C9.11042 12.3279 8.89282 12.3247 8.67522 12.3279C8.51682 12.3311 8.44162 12.2703 8.45122 12.0991C8.46402 11.8767 8.45282 11.6511 8.45762 11.4271C8.45922 11.3215 8.42402 11.2783 8.31202 11.2815C8.11362 11.2879 7.91522 11.2863 7.71682 11.2815C7.60482 11.2799 7.55522 11.3167 7.55842 11.4367C7.56482 11.6671 7.55202 11.8975 7.56322 12.1279C7.56962 12.2751 7.50242 12.3215 7.37122 12.3215C7.20482 12.3215 7.03842 12.3231 6.87202 12.3247C6.51522 12.3295 6.51522 12.3311 6.51682 12.6943C6.51842 13.2239 6.51842 13.2207 7.04482 13.2255C7.20962 13.2271 7.41922 13.1535 7.52482 13.2607C7.63362 13.3647 7.54402 13.5759 7.56162 13.7135ZM5.88482 3.73594C5.66722 3.73594 5.44962 3.73114 5.23202 3.73754C5.08642 3.74234 5.02722 3.68794 5.02242 3.53754C5.00962 3.16634 4.98402 2.79194 5.03522 2.42554C5.15842 1.55354 5.61922 0.577539 6.76802 0.227139C7.28482 0.0687393 7.80482 -0.0496607 8.33762 0.0191393C9.33922 0.147139 10.2208 0.519939 10.7104 1.47514C11.0256 2.08794 11.024 2.76794 10.9968 3.44154C10.9952 3.50234 11.0048 3.56474 10.8896 3.54234C10.8 3.52474 10.7856 3.64154 10.7712 3.70874C10.7488 3.81434 10.7184 3.83034 10.6176 3.77754C10.1808 3.54874 9.89442 3.19194 9.71842 2.74234C9.67042 2.61914 9.64962 2.59674 9.52642 2.68314C8.72802 3.23994 7.84002 3.55194 6.87522 3.67994C6.54562 3.72474 6.21602 3.73914 5.88482 3.73594Z" fill="#DBDDE0"/>
</g>
<defs>
<clipPath id="clip0_1368_1062">
<rect width="16" height="16" fill="white"/>
</clipPath>
</defs>
</svg>
