<svg width="16" height="16" viewBox="0 0 16 16" fill="none" xmlns="http://www.w3.org/2000/svg">
<path d="M7.32961 1.3344C7.32961 2.0704 6.73281 2.6688 5.99521 2.6688C5.25761 2.6688 4.66081 2.072 4.66081 1.3344C4.66081 0.5968 5.26081 0 5.99681 0C6.73281 0 7.32961 0.5984 7.32961 1.3344ZM11.3936 12.256C11.136 12.1328 10.8288 12.2416 10.7056 12.4992C9.98881 13.9968 8.45281 14.9648 6.79201 14.9648C4.40161 14.9648 2.45761 13.0208 2.45761 10.6304C2.45761 9.2736 3.07521 8.0192 4.15361 7.1904C4.38081 7.016 4.42241 6.6928 4.24801 6.4656C4.07521 6.24 3.75041 6.1984 3.52481 6.3712C2.18881 7.3984 1.42401 8.9504 1.42401 10.632C1.42401 13.5904 3.83201 16 6.79201 16C8.84641 16 10.7488 14.8 11.6368 12.9456C11.76 12.688 11.6496 12.3792 11.3936 12.256ZM14.5024 12.6544L11.7216 8.1936C11.5888 7.9792 11.3264 7.9296 11.0448 7.9408H7.54401C7.40161 7.9408 7.28641 7.9248 7.28641 7.9072L7.28961 7.8752V7.3072C7.28961 7.1648 7.31201 7.0544 7.34081 7.056C7.35681 7.0576 7.37441 7.0592 7.39361 7.0592H10.448C10.792 7.0592 11.072 6.7808 11.072 6.4352C11.072 6.0912 10.7936 5.8112 10.448 5.8112H7.39361C7.37441 5.8112 7.35841 5.8128 7.34081 5.816C7.31201 5.8176 7.28961 5.7072 7.28961 5.5648V4.1056C7.28961 3.5504 6.83841 3.1008 6.28481 3.1008H6.00641C5.45281 3.1008 5.00321 3.5504 5.00321 4.1056V9.1536C5.00321 9.7072 5.45281 10.1584 6.00641 10.1584H10.8144C10.9568 10.1584 11.1344 10.2544 11.2144 10.3728C11.6976 11.1024 13.2448 13.44 13.2448 13.44C13.4304 13.7392 13.8656 13.808 14.2128 13.5904C14.56 13.3744 14.6896 12.9552 14.5024 12.6544Z" fill="#DBDDE0"/>
</svg>
