<svg width="16" height="16" viewBox="0 0 16 16" fill="none" xmlns="http://www.w3.org/2000/svg">
<path d="M8.0032 1C4.1344 1 1 4.1344 1 7.9968C1 11.8656 4.1344 15 8.0032 15C11.8656 15 15 11.8656 15 7.9968C15 4.1344 11.8656 1 8.0032 1ZM8.8048 12.8576C8.4592 12.9152 8.1296 12.944 7.8112 12.944C7.4768 12.944 7.136 12.9152 6.8016 12.8576C6.7504 12.5232 6.7216 12.1936 6.7216 11.864C6.7216 11.5344 6.7504 11.2 6.8016 10.8544C7.136 10.8032 7.472 10.7744 7.7952 10.7744C8.1248 10.7744 8.4592 10.8032 8.8048 10.8544C8.8624 11.2016 8.8864 11.536 8.8864 11.8528C8.8864 12.1888 8.8624 12.5232 8.8048 12.8576ZM10.6176 6.9456C10.456 7.2576 10.2544 7.5168 10.0224 7.7312C9.792 7.9456 9.5552 8.1184 9.3072 8.2448C9.064 8.3776 8.8624 8.4752 8.712 8.5392V9.7808C8.3952 9.832 8.088 9.8608 7.7936 9.8608C7.4992 9.8608 7.2112 9.832 6.9392 9.7808V7.4368C7.1472 7.4016 7.3664 7.3504 7.592 7.2816C7.8176 7.2128 8.0304 7.12 8.2208 6.9984C8.4112 6.8832 8.568 6.7328 8.688 6.56C8.8096 6.3808 8.872 6.1616 8.872 5.896C8.872 5.5088 8.728 5.2096 8.4512 5.0064C8.168 4.7984 7.7936 4.7008 7.3312 4.7008C7.1408 4.7008 6.9728 4.7072 6.8224 4.7184C6.672 4.7296 6.5344 4.7536 6.4064 4.7872C6.28 4.816 6.1472 4.856 6.0144 4.8976C5.888 4.9376 5.7488 4.984 5.5984 5.0416C5.472 4.8048 5.368 4.5568 5.2864 4.3024C5.2064 4.048 5.1536 3.7824 5.136 3.512C5.3728 3.432 5.592 3.3616 5.7936 3.304C5.9904 3.24 6.1856 3.1936 6.376 3.16C6.5664 3.1248 6.7568 3.096 6.9472 3.0848C7.1376 3.0736 7.3456 3.0624 7.5584 3.0624C8.6496 3.0624 9.4752 3.3104 10.0288 3.8064C10.5824 4.3024 10.8608 4.9776 10.8608 5.8448C10.8656 6.2704 10.7792 6.6352 10.6176 6.9456Z" fill="#DBDDE0"/>
</svg>
