<svg width="16" height="16" viewBox="0 0 16 16" fill="none" xmlns="http://www.w3.org/2000/svg">
<path d="M14.2683 15.2881C14.2043 14.6753 14.1883 14.0577 14.1275 13.4433C14.0363 12.5233 13.9051 11.6081 13.6331 10.7201C13.4859 10.2449 13.2619 9.83208 12.8155 9.56968C12.3883 9.31848 11.9227 9.16968 11.4555 9.02408C11.2923 8.97288 11.3211 9.08808 11.3307 9.17128C11.3739 9.57288 11.3371 9.96968 11.2539 10.3617C11.2267 10.4881 11.2699 10.5457 11.3787 10.6081C11.8395 10.8657 12.1019 11.2593 12.1307 11.7921C12.1595 12.3409 12.0475 12.8801 12.0139 13.4241C11.9915 13.7937 11.9515 14.1649 11.7963 14.5089C11.6091 14.9249 11.2859 15.0897 10.8443 15.0049C10.6763 14.9729 10.5659 14.8961 10.5931 14.7105C10.6203 14.5281 10.7467 14.4641 10.9147 14.4977C11.1259 14.5393 11.2491 14.4401 11.3355 14.2673C11.3947 14.1473 11.4267 14.0161 11.4395 13.8833C11.5019 13.2705 11.5691 12.6577 11.6187 12.0433C11.6635 11.4881 11.3659 11.0673 10.8731 10.9553C10.3643 10.8401 9.92586 11.0705 9.71626 11.5889C9.54826 12.0033 9.41066 12.4305 9.25066 12.8497C9.15946 13.0865 9.08106 13.3249 9.03306 13.5729C8.97066 13.8945 9.03466 14.0129 9.33226 14.1473C9.47466 14.2113 9.54346 14.3121 9.49386 14.4641C9.44426 14.6177 9.33226 14.6609 9.17866 14.6321C8.74026 14.5489 8.48586 14.2369 8.49386 13.7873C8.49706 13.6033 8.52426 13.4257 8.57546 13.2497C8.76426 12.5969 9.01226 11.9649 9.26506 11.3345C9.49226 10.7681 9.94506 10.4561 10.5611 10.4129C10.6811 10.4033 10.7323 10.3697 10.7547 10.2529C10.8299 9.86408 10.8411 9.47528 10.8059 9.08168C10.7899 8.89608 10.7179 8.79528 10.5243 8.76488C10.3675 8.74088 10.2107 8.68808 10.0635 8.62728C9.91626 8.56808 9.85226 8.58568 9.80106 8.75208C9.62026 9.35688 9.36746 9.93448 9.07466 10.4945C8.93386 10.7649 8.77066 11.0241 8.58986 11.3377C8.51786 10.9409 8.46346 10.6033 8.39306 10.2673C8.36106 10.1169 8.36426 9.98088 8.42986 9.83848C8.46666 9.75688 8.56426 9.66088 8.46666 9.57288C8.31146 9.43208 8.14186 9.30888 7.97706 9.17928C7.97226 9.17448 7.94986 9.18568 7.94026 9.19368C7.78026 9.33128 7.59786 9.44968 7.47306 9.61288C7.39786 9.71048 7.54346 9.83848 7.57546 9.95688C7.58186 9.98408 7.59626 10.0129 7.59306 10.0385C7.52586 10.4513 7.45546 10.8625 7.38026 11.3137C7.32746 11.2513 7.30346 11.2273 7.28746 11.2001C6.86506 10.5185 6.52106 9.80168 6.26026 9.04328C6.20746 8.88808 6.21226 8.64808 6.07946 8.59848C5.95466 8.55208 5.76746 8.67528 5.60746 8.72008C5.52426 8.74408 5.45066 8.76648 5.41866 8.86408C5.35786 9.05288 5.27146 9.23208 5.22666 9.42088C4.93226 10.6497 5.00586 11.8657 5.38506 13.0673C5.44266 13.2497 5.51146 13.3489 5.71946 13.3889C6.12106 13.4689 6.33706 13.9089 6.19946 14.2897C6.05546 14.6913 5.62186 14.8801 5.24426 14.7073C4.86346 14.5345 4.70026 14.0657 4.92106 13.7169C5.00106 13.5905 4.99146 13.4929 4.94826 13.3681C4.54186 12.2017 4.43306 11.0081 4.62026 9.78568C4.66346 9.50408 4.75786 9.23528 4.82186 8.93768C4.26346 9.10088 3.72746 9.23688 3.24426 9.51848C2.88906 9.72488 2.61386 9.99528 2.45866 10.3889C2.27306 10.8609 2.16106 11.3505 2.06666 11.8465C1.84906 12.9985 1.78186 14.1681 1.69386 15.3345C1.66986 15.6529 1.81226 15.8497 2.06506 15.9985H13.8875C14.1883 15.8561 14.3035 15.6289 14.2683 15.2881ZM5.32746 5.44808C5.43626 5.47688 5.48746 5.52968 5.52906 5.62888C5.77386 6.21448 6.07626 6.76488 6.52586 7.22248C6.88106 7.58568 7.29226 7.85768 7.81386 7.91048C8.46986 7.97768 8.98186 7.68488 9.42506 7.24168C9.87626 6.78888 10.1899 6.24488 10.4347 5.65608C10.4683 5.57608 10.4795 5.47528 10.6011 5.46408C11.0379 5.42248 11.3787 4.73128 11.3067 4.31048C11.2859 4.19048 11.2411 4.08008 11.1099 4.07208C10.9467 4.06088 10.9771 3.97448 11.0011 3.87368C11.0875 3.51208 11.1243 3.14248 11.1419 2.82568C11.1531 2.50408 11.1227 2.23688 11.0587 1.98088C10.9611 1.59368 10.7611 1.26088 10.3979 1.07528C10.1835 0.964882 10.0187 0.843282 9.94666 0.604882C9.91946 0.512082 9.82826 0.451282 9.75306 0.388882C9.47466 0.158482 9.14506 0.0576819 8.80266 0.0240819C7.77706 -0.0767181 6.82026 0.142482 5.97386 0.739282C5.38986 1.14888 4.98826 1.68968 4.90666 2.42568C4.85226 2.91048 4.87946 3.39048 4.97066 3.86888C4.98986 3.97128 5.03146 4.07848 4.85066 4.07528C4.76906 4.07368 4.71626 4.14248 4.68906 4.22248C4.53866 4.65128 4.88586 5.33128 5.32746 5.44808V5.44808Z" fill="#DBDDE0"/>
</svg>
