<svg width="40" height="40" viewBox="0 0 40 40" fill="none" xmlns="http://www.w3.org/2000/svg">
<path d="M27.912 20.76C27.912 21.856 28.8 22.74 29.896 22.74C30.984 22.74 31.876 21.852 31.876 20.76C31.876 19.664 30.988 18.78 29.896 18.78C28.8041 18.78 27.912 19.664 27.912 20.76ZM26.508 20.124C26.156 20.124 25.884 20.408 25.884 20.76V24.584C25.884 24.936 26.144 25.244 26.492 25.244H31.164C31.516 25.244 31.8 24.944 31.8 24.592C31.804 24.24 31.516 23.94 31.164 23.94H27.34C27.228 23.94 27.124 23.852 27.124 23.736V20.76C27.128 20.408 26.8601 20.124 26.508 20.124ZM8.94805 24.992H24.872C25.104 24.992 25.268 24.816 25.268 24.584V21.544C25.268 21.308 25.104 21.088 24.872 21.088H10.6481C9.47205 21.088 8.52805 21.992 8.52805 23.064V24.584C8.52405 24.816 8.71205 24.992 8.94805 24.992ZM23.28 12.168C25.788 13.864 28.328 14.488 28.956 13.56C29.588 12.632 28.068 10.504 25.56 8.804C23.056 7.108 20.516 6.488 19.884 7.412C19.2561 8.34 20.776 10.472 23.28 12.168ZM24.788 11.924C24.6521 12.128 24.096 11.992 23.552 11.62C23.004 11.252 22.668 10.784 22.8081 10.584C22.948 10.384 23.5 10.516 24.044 10.888C24.592 11.256 24.924 11.72 24.788 11.924ZM27.7 12.812C27.56 13.016 27.012 12.88 26.464 12.512C25.916 12.136 25.588 11.676 25.724 11.472C25.86 11.272 26.416 11.404 26.964 11.776C27.508 12.148 27.84 12.612 27.7 12.812ZM23.98 9.052C24.116 8.852 24.6721 8.984 25.216 9.356C25.768 9.724 26.092 10.192 25.96 10.392C25.82 10.592 25.268 10.46 24.72 10.092C24.172 9.72 23.844 9.256 23.98 9.052ZM21.048 8.112C21.1881 7.912 21.744 8.044 22.288 8.416C22.8361 8.784 23.172 9.252 23.032 9.452C22.892 9.652 22.3361 9.52 21.7961 9.148C21.2441 8.78 20.9121 8.312 21.048 8.112ZM29.62 12.576C29.964 12.06 29.952 11.384 29.592 10.88C29.096 10.188 28.244 9.184 26.956 8.248L29.032 5.592C29.132 5.464 29.18 5.312 29.18 5.152V0.712C29.18 0.32 28.86 0 28.464 0C28.072 0 27.752 0.316 27.752 0.712V4.904L25.748 7.484C25.748 7.484 24.088 6.344 21.984 5.952C21.52 5.864 21.048 6.048 20.764 6.424L20.752 6.44C20.752 6.44 23.176 6.62 25.884 8.516C28.828 10.6 29.62 12.576 29.62 12.576ZM34.756 25.804H5.24005C5.24005 27.684 6.76405 29.208 8.65205 29.208H18.196C18.196 29.208 18.2 29.212 18.2 29.216V32.976C17.892 32.996 17.644 33.296 17.644 33.672V36.112C17.644 36.488 17.892 36.788 18.2 36.808V39.384C18.2 39.732 18.48 39.996 18.832 39.996H21.16C21.512 39.996 21.7961 39.736 21.7961 39.384V29.212H31.344C33.228 29.208 34.756 27.684 34.756 25.804Z" fill="#558EFF"/>
</svg>
