<svg width="16" height="16" viewBox="0 0 16 16" fill="none" xmlns="http://www.w3.org/2000/svg">
<path d="M4.00952 14.3248C4.02552 14.7024 4.33592 15 4.71352 15H11.2911C11.6687 15 11.9807 14.7024 11.9951 14.3248L12.4655 4.408H3.53912L4.00952 14.3248ZM9.48952 6.872C9.48952 6.7136 9.61752 6.5856 9.77592 6.5856H10.2335C10.3919 6.5856 10.5199 6.7152 10.5199 6.872V12.5376C10.5199 12.696 10.3903 12.824 10.2335 12.824H9.77592C9.61752 12.824 9.48952 12.696 9.48952 12.5376V6.872ZM7.48792 6.872C7.48792 6.7136 7.61592 6.5856 7.77432 6.5856H8.23192C8.39032 6.5856 8.51832 6.7152 8.51832 6.872V12.5376C8.51832 12.696 8.39032 12.824 8.23192 12.824H7.77432C7.61592 12.824 7.48792 12.696 7.48792 12.5376V6.872ZM5.48472 6.872C5.48472 6.7136 5.61272 6.5856 5.76952 6.5856H6.22712C6.38552 6.5856 6.51352 6.7152 6.51352 6.872V12.5376C6.51352 12.696 6.38392 12.824 6.22712 12.824H5.76952C5.61112 12.824 5.48472 12.696 5.48472 12.5376V6.872ZM12.7775 1.7216H9.74392V1.1472C9.74392 1.0656 9.67832 1 9.59672 1H6.40952C6.32792 1 6.26232 1.0656 6.26232 1.1472V1.7216H3.22712C2.98392 1.7216 2.78552 1.9184 2.78552 2.1632V3.552H13.2191V2.1632C13.2191 1.92 13.0223 1.7216 12.7775 1.7216Z" fill="#FF6760"/>
</svg>
